<svg width="17" height="19" viewBox="0 0 17 19" fill="none" xmlns="http://www.w3.org/2000/svg">
<path d="M11.8823 0C10.8515 0.0696005 9.64663 0.7137 8.94451 1.55244C8.30404 2.31333 7.77715 3.44345 7.98259 4.54173C9.10886 4.57594 10.2726 3.9165 10.9469 3.0636C11.5777 2.26968 12.0551 1.14664 11.8823 0Z" fill="white"/>
<path d="M15.956 6.45761C14.9663 5.24608 13.5753 4.543 12.2617 4.543C10.5276 4.543 9.79408 5.35343 8.58925 5.35343C7.34696 5.35343 6.40315 4.54536 4.90346 4.54536C3.43035 4.54536 1.86178 5.42421 0.867218 6.92712C-0.530965 9.04345 -0.291691 13.0225 1.97416 16.4117C2.78504 17.6244 3.86781 18.9881 5.28412 18.9999C6.54454 19.0117 6.89983 18.2107 8.60738 18.2024C10.3149 18.193 10.6388 19.0105 11.8968 18.9975C13.3143 18.9869 14.4563 17.4757 15.2672 16.263C15.8484 15.3936 16.0648 14.956 16.5155 13.9745C13.237 12.7559 12.7113 8.2047 15.956 6.45761Z" fill="white"/>
</svg>
