<svg width="20" height="24" viewBox="0 0 20 24" fill="none" xmlns="http://www.w3.org/2000/svg">
<g clip-path="url(#clip0_1_372)">
<path d="M10 23.2732C15.5228 23.2732 20 18.1058 20 11.7314C20 5.35698 15.5228 0.189514 10 0.189514C4.47715 0.189514 0 5.35698 0 11.7314C0 18.1058 4.47715 23.2732 10 23.2732Z" fill="black"/>
<path d="M11.8792 4.80624C11.2824 4.85275 10.5849 5.28315 10.1784 5.84361C9.80758 6.35204 9.50254 7.1072 9.62148 7.84108C10.2735 7.86394 10.9473 7.4233 11.3377 6.85338C11.7029 6.32288 11.9792 5.57244 11.8792 4.80624Z" fill="white"/>
<path d="M14.2377 9.12128C13.6647 8.31173 12.8594 7.84192 12.0989 7.84192C11.0949 7.84192 10.6703 8.38346 9.97272 8.38346C9.2535 8.38346 8.70709 7.8435 7.83884 7.8435C6.98599 7.8435 6.07787 8.43076 5.50207 9.43502C4.6926 10.8492 4.83113 13.508 6.14294 15.7727C6.61239 16.5831 7.23926 17.4943 8.05923 17.5022C8.78895 17.5101 8.99464 16.9748 9.98322 16.9693C10.9718 16.963 11.1593 17.5093 11.8876 17.5006C12.7083 17.4935 13.3694 16.4837 13.8389 15.6734C14.1754 15.0924 14.3006 14.8 14.5616 14.1441C12.6635 13.3299 12.3592 10.2887 14.2377 9.12128Z" fill="white"/>
</g>
<defs>
<clipPath id="clip0_1_372">
<rect width="20" height="23.0837" fill="white" transform="translate(0 0.189514)"/>
</clipPath>
</defs>
</svg>
