<svg width="19" height="19" viewBox="0 0 19 19" fill="none" xmlns="http://www.w3.org/2000/svg">
<path d="M9.50006 0C4.25337 0 0 4.25618 0 9.50633C0 14.2151 3.42496 18.1147 7.91564 18.8699V11.4896H5.62395V8.83374H7.91564V6.87541C7.91564 4.60319 9.30253 3.36496 11.3285 3.36496C12.2988 3.36496 13.1326 3.43731 13.3747 3.46918V5.84426L11.9696 5.84494C10.868 5.84494 10.6556 6.36862 10.6556 7.13737V8.83238H13.284L12.9412 11.4882H10.6556V18.9334C15.356 18.3609 19 14.3619 19 9.50361C19 4.25618 14.7466 0 9.50006 0Z" fill="white"/>
</svg>
