<svg width="20" height="24" viewBox="0 0 20 24" fill="none" xmlns="http://www.w3.org/2000/svg">
<g clip-path="url(#clip0_1_366)">
<path d="M10 23.1058C15.5228 23.1058 20 17.9383 20 11.5639C20 5.18953 15.5228 0.0220642 10 0.0220642C4.47715 0.0220642 0 5.18953 0 11.5639C0 17.9383 4.47715 23.1058 10 23.1058Z" fill="#3B5998"/>
<path d="M12.514 12.0157H10.7296V19.5608H8.02611V12.0157H6.74033V9.3641H8.02611V7.64819C8.02611 6.42113 8.53112 4.49968 10.7537 4.49968L12.7562 4.50935V7.08321H11.3032C11.0649 7.08321 10.7298 7.22065 10.7298 7.80599V9.36657H12.7502L12.514 12.0157Z" fill="white"/>
</g>
<defs>
<clipPath id="clip0_1_366">
<rect width="20" height="23.0837" fill="white" transform="translate(0 0.0220642)"/>
</clipPath>
</defs>
</svg>
