<svg width="20" height="20" viewBox="0 0 20 20" fill="none" xmlns="http://www.w3.org/2000/svg">
<path d="M10 20C15.5228 20 20 15.5228 20 10C20 4.47715 15.5228 0 10 0C4.47715 0 0 4.47715 0 10C0 15.5228 4.47715 20 10 20Z" fill="#E50E47"/>
<path d="M10.7436 11.3718C10.641 11.4359 10.5256 11.4615 10.4231 11.4615C10.3205 11.4615 10.2051 11.4359 10.1026 11.3718L5 8.25641V12.3974C5 13.282 5.71795 14 6.60256 14H14.2564C15.141 14 15.8589 13.282 15.8589 12.3974V8.25641L10.7436 11.3718Z" fill="white"/>
<path d="M14.2564 6H6.60255C5.84614 6 5.20512 6.53846 5.05127 7.25641L10.4359 10.5384L15.8077 7.25641C15.6538 6.53846 15.0128 6 14.2564 6Z" fill="white"/>
</svg>
